<?xml version="1.0" standalone="no"?>
<!DOCTYPE svg PUBLIC "-//W3C//DTD SVG 20010904//EN"
 "http://www.w3.org/TR/2001/REC-SVG-20010904/DTD/svg10.dtd">
<svg version="1.0" xmlns="http://www.w3.org/2000/svg"
 width="1000.000000pt" height="1000.000000pt" viewBox="0 0 1000.000000 1000.000000"
 preserveAspectRatio="xMidYMid meet">
<metadata>
Created by potrace 1.14, written by Peter Selinger 2001-2017
</metadata>
<g transform="translate(0.000000,1000.000000) scale(0.100000,-0.100000)"
fill="#000000" stroke="none">
<path d="M0 5000 l0 -5000 5000 0 5000 0 0 5000 0 5000 -5000 0 -5000 0 0
-5000z m1771 355 c104 -198 224 -424 265 -502 l75 -143 -34 0 -34 0 -234 444
-234 444 -3 -624 -2 -624 -30 0 -30 0 0 686 0 685 36 -3 36 -3 189 -360z m207
-134 c144 -274 262 -502 262 -506 0 -3 -15 -5 -32 -3 -33 3 -36 9 -291 493
-142 270 -261 496 -264 503 -3 8 5 12 28 12 l34 0 263 -499z m120 27 c136
-258 249 -468 252 -468 3 0 116 210 251 468 l246 467 36 3 37 3 0 -685 0 -686
-30 0 -30 0 -2 625 -3 625 -235 -445 -234 -445 -37 0 -37 0 -265 506 -265 505
35 -3 35 -3 246 -467z m542 466 c0 -7 -288 -556 -343 -653 -30 -53 -30 -53
-43 -30 -7 13 -13 30 -14 37 0 7 66 138 146 290 203 384 189 362 224 362 17 0
30 -3 30 -6z m109 -56 c-30 -60 -237 -452 -356 -677 -54 -101 -56 -103 -69
-80 -7 13 -13 30 -14 37 0 7 91 186 202 397 l203 385 33 0 32 0 -31 -62z m391
-623 l0 -685 -30 0 -30 0 0 685 0 685 30 0 30 0 0 -685z m120 0 l0 -685 -30 0
-30 0 0 685 0 685 30 0 30 0 0 -685z m120 0 l0 -685 -30 0 -30 0 0 685 0 685
30 0 30 0 0 -685z m120 0 l0 -685 -30 0 -30 0 0 685 0 685 30 0 30 0 0 -685z
m1923 664 c140 -47 266 -165 317 -299 45 -116 36 -276 -22 -399 -29 -62 -118
-165 -163 -189 -19 -11 -18 -18 57 -237 l77 -225 -33 0 -32 0 -69 200 c-38
111 -72 205 -75 210 -7 11 -50 2 -50 -10 0 -5 29 -93 65 -195 36 -103 65 -191
65 -196 0 -5 -13 -9 -29 -9 -28 0 -30 3 -79 143 -27 78 -57 166 -66 195 -15
44 -21 52 -42 52 -13 0 -24 -6 -24 -13 0 -7 27 -93 60 -192 33 -99 60 -181 60
-183 0 -2 -14 -2 -32 0 l-31 3 -62 185 c-59 178 -63 185 -90 188 -20 3 -26 0
-23 -10 5 -13 66 -205 98 -310 l18 -58 -32 0 -32 0 -59 190 -59 190 -113 0
-113 0 0 30 0 30 194 0 c106 0 217 5 247 10 222 42 373 241 356 467 -11 148
-104 281 -246 351 l-75 37 -433 3 -433 3 0 -656 0 -655 -30 0 -30 0 0 685 0
685 450 0 c431 0 453 -1 513 -21z m537 -664 l0 -685 -30 0 -30 0 0 685 0 685
30 0 30 0 0 -685z m120 0 l0 -685 -30 0 -30 0 0 685 0 685 30 0 30 0 0 -685z
m120 0 l0 -685 -30 0 -30 0 0 685 0 685 30 0 30 0 0 -685z m750 655 l0 -30
-315 0 -315 0 0 -30 0 -30 315 0 315 0 0 -30 0 -30 -315 0 -315 0 0 -30 0 -30
315 0 315 0 0 -30 0 -30 -315 0 -315 0 0 -120 0 -120 160 0 160 0 0 -30 0 -30
-160 0 -160 0 0 -30 0 -30 160 0 160 0 0 -25 0 -25 -160 0 -160 0 0 -30 0 -30
160 0 160 0 0 -30 0 -30 -160 0 -160 0 0 -120 0 -120 315 0 315 0 0 -30 0 -30
-315 0 -315 0 0 -30 0 -30 315 0 315 0 0 -30 0 -30 -315 0 -315 0 0 -30 0 -30
315 0 315 0 0 -30 0 -30 -345 0 -345 0 0 685 0 685 345 0 345 0 0 -30z m202
-402 c4 -381 6 -440 22 -488 90 -276 329 -450 620 -450 111 0 184 17 295 70
154 74 287 237 326 401 12 52 15 145 15 482 l0 417 30 0 30 0 0 -423 c0 -471
-5 -513 -70 -635 -95 -178 -277 -318 -465 -357 -324 -68 -653 82 -791 360 -67
135 -67 135 -71 618 l-4 437 30 0 30 0 3 -432z m118 35 c0 -436 6 -490 57
-586 60 -112 186 -210 322 -251 69 -20 208 -21 286 -1 127 34 258 133 317 242
55 100 58 130 58 580 l0 413 30 0 30 0 0 -410 c0 -258 -4 -429 -11 -462 -33
-158 -149 -304 -299 -376 -107 -51 -183 -66 -308 -60 -118 6 -226 44 -316 112
-97 73 -152 150 -199 276 -20 52 -21 80 -25 488 l-3 432 30 0 31 0 0 -397z
m122 -25 l3 -423 27 -57 c37 -80 108 -152 187 -191 63 -30 72 -32 181 -32 108
0 119 2 182 32 82 39 151 106 186 181 l27 57 3 428 3 427 30 0 30 0 -3 -433
-3 -433 -37 -75 c-47 -95 -112 -158 -216 -207 -69 -33 -87 -37 -174 -40 -78
-4 -110 0 -166 17 -163 49 -282 178 -311 336 -7 36 -11 209 -11 447 l0 388 29
0 30 0 3 -422z m118 31 c0 -254 4 -406 11 -434 14 -55 76 -128 133 -157 51
-26 168 -36 228 -19 67 19 132 72 162 132 l26 53 0 408 0 408 30 0 30 0 0
-408 c0 -478 1 -473 -89 -563 -79 -78 -145 -102 -266 -97 -73 4 -100 9 -143
32 -67 34 -128 95 -156 155 -20 44 -21 61 -24 464 l-3 417 30 0 31 0 0 -391z
m-2075 237 c76 -38 143 -105 181 -181 26 -54 29 -70 29 -155 0 -82 -4 -103
-27 -152 -32 -68 -96 -140 -156 -175 -73 -43 -138 -53 -354 -53 l-198 0 0 29
0 29 223 4 c201 3 226 5 267 24 68 32 126 88 157 152 24 49 28 69 28 142 0 70
-4 93 -23 130 -35 66 -89 119 -157 151 l-60 29 -352 0 -353 0 0 -595 0 -595
-30 0 -30 0 0 625 0 626 398 -3 397 -3 60 -29z m-47 -112 c131 -65 179 -217
111 -350 -27 -54 -94 -106 -157 -124 -20 -5 -126 -10 -234 -10 l-198 0 0 30 0
30 193 0 c105 0 209 5 230 11 56 15 112 70 127 124 25 91 -3 170 -82 227 -32
23 -38 23 -325 26 l-293 3 0 -536 0 -535 -30 0 -30 0 0 565 0 565 318 0 318 0
52 -26z m-2588 -574 l0 -530 -30 0 -30 0 0 475 0 475 27 55 c15 30 28 55 30
55 2 0 3 -238 3 -530z m-1110 -57 l0 -473 -30 0 -30 0 0 528 1 527 29 -55 29
-55 1 -472z m3677 504 c31 -29 37 -41 40 -88 3 -42 0 -61 -17 -87 -34 -55 -65
-62 -285 -62 l-195 0 0 30 0 30 194 0 c180 0 195 1 220 21 33 26 36 79 6 109
-19 19 -33 20 -235 20 l-215 0 0 -475 0 -475 -30 0 -30 0 0 505 0 505 255 0
255 0 37 -33z m-2687 -562 l0 -415 -30 0 -30 0 0 365 0 365 28 50 c15 27 28
50 30 50 1 0 2 -187 2 -415z m1630 385 l0 -30 -327 2 -328 3 -3 28 -3 27 330
0 331 0 0 -30z m-2500 -440 l0 -360 -30 0 -30 0 0 413 0 412 30 -52 30 -52 0
-361z m2500 325 l0 -25 -330 0 -330 0 0 25 0 25 330 0 330 0 0 -25z m-1750
-385 l0 -300 -30 0 -30 0 0 251 0 251 28 49 c15 27 28 49 30 49 1 0 2 -135 2
-300z m1750 270 l0 -30 -330 0 -330 0 0 23 c0 13 3 27 7 30 3 4 152 7 330 7
l323 0 0 -30z m-2400 -42 c18 -34 20 -58 20 -283 l0 -245 -30 0 -30 0 0 298
c0 206 3 292 11 282 5 -8 19 -32 29 -52z"/>
</g>
</svg>
