<?xml version="1.0" standalone="no"?>
<!DOCTYPE svg PUBLIC "-//W3C//DTD SVG 20010904//EN"
 "http://www.w3.org/TR/2001/REC-SVG-20010904/DTD/svg10.dtd">
<svg version="1.0" xmlns="http://www.w3.org/2000/svg"
 width="1000.000000pt" height="1000.000000pt" viewBox="0 0 1000.000000 1000.000000"
 preserveAspectRatio="xMidYMid meet">
<metadata>
Created by potrace 1.14, written by Peter Selinger 2001-2017
</metadata>
<g transform="translate(0.000000,1000.000000) scale(0.100000,-0.100000)"
fill="#000000" stroke="none">
<path d="M0 5000 l0 -5000 5000 0 5000 0 0 5000 0 5000 -5000 0 -5000 0 0
-5000z m7955 675 c223 -45 385 -184 425 -366 19 -87 9 -212 -22 -281 -33 -71
-108 -147 -179 -183 -68 -34 -68 -34 -46 -50 21 -15 63 -7 105 21 l26 17 89
-93 c88 -93 88 -94 81 -134 -20 -122 -92 -225 -186 -267 -61 -26 -184 -32
-254 -11 -106 31 -187 119 -240 261 l-33 86 -52 8 c-32 4 -57 3 -62 -2 -16
-16 10 -39 46 -43 30 -3 34 -9 65 -83 21 -53 31 -93 30 -120 -3 -37 -7 -42
-56 -68 -68 -37 -195 -60 -287 -53 -123 9 -200 48 -235 116 -19 38 -20 61 -20
573 0 607 -8 555 88 602 63 31 215 71 320 84 103 13 299 6 397 -14z m-5801
-11 c33 -10 64 -27 71 -39 7 -11 23 -57 36 -102 23 -82 23 -83 5 -160 -10 -43
-20 -85 -22 -94 -5 -20 25 -54 37 -42 4 4 29 96 54 203 26 107 50 198 54 202
3 4 33 17 66 28 77 27 214 37 297 21 145 -28 187 -86 212 -286 23 -184 73
-653 87 -813 l12 -143 -24 -25 c-37 -39 -137 -82 -219 -95 -151 -23 -300 10
-363 80 -35 39 -41 55 -52 146 l-6 50 45 18 c79 32 162 144 125 168 -10 7 -20
1 -34 -18 -11 -16 -37 -45 -58 -65 -105 -105 -308 -78 -387 51 -28 46 -60 55
-60 17 0 -53 134 -176 193 -176 15 0 17 -11 17 -101 l0 -100 -64 -30 c-131
-61 -346 -63 -475 -4 -103 48 -141 102 -141 202 0 123 79 939 99 1017 9 37 84
81 173 101 84 19 244 14 322 -11z m1409 1 c63 -22 122 -79 136 -130 7 -27 11
-217 11 -582 l0 -542 -37 -26 c-51 -35 -148 -63 -241 -71 -143 -12 -265 37
-309 126 l-23 44 0 552 c0 625 -9 563 91 608 30 14 79 30 109 35 75 13 205 6
263 -14z m648 0 c59 -20 114 -67 142 -118 21 -41 22 -53 25 -362 l3 -320 -53
-13 c-79 -18 -137 -67 -111 -93 9 -9 18 -8 38 5 72 47 132 59 333 64 l192 4
25 -53 c13 -30 30 -86 36 -125 15 -88 1 -188 -39 -267 l-27 -52 -425 0 c-423
0 -425 0 -467 23 -53 28 -90 81 -103 151 -6 32 -10 261 -10 566 0 575 -8 521
79 565 99 50 260 61 362 25z m1138 -17 c73 -37 116 -87 131 -154 5 -21 10
-172 10 -335 l0 -296 -36 -6 c-53 -9 -122 -45 -130 -69 -11 -37 10 -39 72 -9
81 40 151 51 336 51 l159 0 24 -55 c55 -124 54 -275 -3 -388 l-27 -52 -425 0
c-420 0 -425 0 -467 22 -52 28 -79 63 -98 126 -12 42 -15 139 -15 577 0 592
-8 536 79 580 67 33 156 50 245 46 64 -4 90 -10 145 -38z m1740 -53 c26 -78
32 -188 12 -247 -6 -19 -25 -48 -42 -64 l-30 -29 -255 -5 c-212 -4 -256 -8
-264 -20 -5 -8 -10 -18 -10 -22 0 -5 112 -8 250 -8 l249 0 15 -28 c40 -77 41
-235 2 -310 l-15 -30 -218 -4 c-237 -5 -298 -16 -298 -53 0 -22 3 -22 84 -6
29 6 154 11 277 11 256 0 237 7 268 -99 30 -101 13 -255 -35 -322 l-20 -29
-418 0 c-458 0 -480 2 -559 60 -23 16 -52 49 -64 72 l-23 43 -3 542 c-3 539
-3 542 18 561 54 50 162 60 655 58 l400 -1 24 -70z"/>
<path d="M7729 5236 c-2 -2 -3 -41 -1 -85 3 -69 6 -81 21 -81 9 0 22 5 29 12
15 15 16 112 2 139 -10 17 -40 26 -51 15z"/>
</g>
</svg>
