<svg xmlns="http://www.w3.org/2000/svg" version="1.1" xmlns:xlink="http://www.w3.org/1999/xlink" xmlns:svgjs="http://svgjs.dev/svgjs" width="100" height="20" viewBox="0 0 1000 199"><g transform="matrix(1,0,0,1,-0.6060606060606801,-0.2851946134075547)"><svg viewBox="0 0 396 79" data-background-color="#282634" preserveAspectRatio="xMidYMid meet" height="199" width="1000" xmlns="http://www.w3.org/2000/svg" xmlns:xlink="http://www.w3.org/1999/xlink"><g id="tight-bounds" transform="matrix(1,0,0,1,0.24000000000003752,0.11321796210651769)"><svg viewBox="0 0 395.5199999999999 78.77356407578695" height="78.77356407578695" width="395.5199999999999"><g><svg viewBox="0 0 395.5199999999999 78.77356407578695" height="78.77356407578695" width="395.5199999999999"><g><svg viewBox="0 0 395.5199999999999 78.77356407578695" height="78.77356407578695" width="395.5199999999999"><g id="textblocktransform"><svg viewBox="0 0 395.5199999999999 78.77356407578695" height="78.77356407578695" width="395.5199999999999" id="textblock"><g><svg viewBox="0 0 395.5199999999999 78.77356407578695" height="78.77356407578695" width="395.5199999999999"><g transform="matrix(1,0,0,1,0,0)"><svg width="395.5199999999999" viewBox="0.17 -32.15 161.8 32.59" height="78.77356407578695" data-palette-color="#ff4057"><g class="undefined-text-0" data-fill-palette-color="primary" id="text-0"><path d="M27.64 0.44L27.64 0.44Q24.29 0.44 22.39-0.66L22.39-0.66Q20.34-1.81 20.17-3.91L20.17-3.91 19.95-6.2Q22.19-6.74 23.73-8.98L23.73-8.98Q24.15-9.62 24.15-10.08L24.15-10.08Q24.15-10.72 23.51-10.72L23.51-10.72 23.44-10.72Q23.41-10.69 23.34-10.69L23.34-10.69Q21.63-7.1 17.8-7.1L17.8-7.1Q15.84-7.1 14.47-7.96 13.09-8.81 11.94-10.91L11.94-10.91 11.79-10.91Q11.13-10.91 11.13-10.35L11.13-10.35Q11.13-9.96 11.43-9.47L11.43-9.47Q12.4-7.84 13.87-6.91L13.87-6.91Q15.01-6.13 16.28-5.98L16.28-5.98 16.09-1.37Q14.62-0.42 13 0.01 11.38 0.44 8.39 0.44 5.4 0.44 3.05-0.73L3.05-0.73Q0.17-2.17 0.17-4.74L0.17-4.74Q0.17-7.93 1.44-20.53L1.44-20.53Q2.12-27.1 2.54-29.71L2.54-29.71Q5.05-31.96 9.96-31.96L9.96-31.96Q13.53-31.96 15.87-30.64L15.87-30.64 17.21-26.15 16.36-22.56Q16.26-22.19 16.26-21.85L16.26-21.85Q16.26-21 17.24-20.97L17.24-20.97 19.56-30.62Q20.56-31.15 22.17-31.56 23.78-31.96 25.68-31.96L25.68-31.96Q29.25-31.96 30.97-30.75 32.69-29.54 33.01-26.68L33.01-26.68Q33.08-26.15 33.23-24.9L33.23-24.9Q35.45-5.81 35.45-2.42L35.45-2.42Q32.74 0.44 27.64 0.44ZM50.66-27.08L50.66-27.08 50.66-1.86Q49.53-0.88 47.65-0.22 45.77 0.44 43.09 0.44 40.4 0.44 38.52-0.76L38.52-0.76Q36.4-2.05 36.4-4.42L36.4-4.42 36.4-29.64Q37.52-30.62 39.4-31.27 41.28-31.93 43.94-31.93 46.6-31.93 48.56-30.76L48.56-30.76Q50.66-29.42 50.66-27.08ZM75.63 0.02L57.88 0.02Q55.17 0.02 53.69-1.42 52.22-2.86 52.22-5.76L52.22-5.76 52.22-29.64Q53.51-30.74 55.38-31.34 57.25-31.93 59.25-31.93L59.25-31.93Q62.2-31.93 64.25-30.47L64.25-30.47Q66.47-28.81 66.47-25.88L66.47-25.88 66.47-12.52Q65.11-12.4 63.79-11.76 62.47-11.11 62.47-10.42L62.47-10.42Q62.47-10.01 62.93-9.72L62.93-9.72Q65.35-11.74 70.11-11.74L70.11-11.74 75.9-11.74Q77.51-8.91 77.51-5.96L77.51-5.96Q77.51-4.49 77-2.71 76.48-0.93 75.63 0.02L75.63 0.02ZM101.7 0.02L83.95 0.02Q81.24 0.02 79.77-1.42 78.29-2.86 78.29-5.76L78.29-5.76 78.29-29.64Q79.58-30.74 81.45-31.34 83.32-31.93 85.32-31.93L85.32-31.93Q88.27-31.93 90.32-30.47L90.32-30.47Q92.55-28.81 92.55-25.88L92.55-25.88 92.55-12.52Q91.18-12.4 89.86-11.76 88.54-11.11 88.54-10.42L88.54-10.42Q88.54-10.01 89.01-9.72L89.01-9.72Q91.42-11.74 96.18-11.74L96.18-11.74 101.97-11.74Q103.58-8.91 103.58-5.96L103.58-5.96Q103.58-4.49 103.07-2.71 102.56-0.93 101.7 0.02L101.7 0.02ZM115.35-31.49L115.35-31.49 129.43-31.49Q130.14-30.32 130.48-28.94 130.82-27.56 130.82-26.46L130.82-26.46Q130.82-24 129.86-22.75 128.9-21.51 127.16-21.51L127.16-21.51 117.32-21.51Q116.42-21.51 116.42-20.8L116.42-20.8 116.42-20.61Q116.42-20.46 116.47-20.41L116.47-20.41 128.14-20.41Q128.58-19.65 128.9-18.51L128.9-18.51Q129.19-17.26 129.19-16.28L129.19-16.28Q129.19-13.38 128.12-11.74L128.12-11.74 122.82-11.74Q119.11-11.74 117.79-11.46 116.47-11.18 116.15-10.99L116.15-10.99Q115.83-10.77 115.83-10.42 115.83-10.08 116.18-9.89L116.18-9.89Q117.45-10.3 118.84-10.47L118.84-10.47Q120.67-10.64 122.82-10.64L122.82-10.64 129.68-10.64Q131.17-8.54 131.17-5.59L131.17-5.59Q131.17-3.93 130.75-2.42 130.34-0.9 129.51 0.02L129.51 0.02 111.22 0.02Q108.19 0.02 106.36-1.44L106.36-1.44Q104.36-3 104.36-6.03L104.36-6.03 104.36-29.25Q104.36-30.42 107.05-30.96 109.73-31.49 115.35-31.49ZM145.15-20.85L145.15-17.36Q145.25-17.29 145.72-17.29 146.18-17.29 146.42-17.65 146.67-18.02 146.67-18.85L146.67-18.85 146.67-19.73Q146.67-20.61 146.46-20.98 146.25-21.36 145.78-21.36 145.3-21.36 145.13-21.26L145.13-21.26Q145.15-21.14 145.15-20.85L145.15-20.85ZM157.75-11.79L157.75-11.79 161.97-7.47Q161.54-3.66 159.57-1.61 157.6 0.44 154.14 0.44L154.14 0.44Q151.53 0.44 149.6-0.81L149.6-0.81Q147.13-2.37 145.91-5.79L145.91-5.79 145.03-8.18Q144.01-8.2 142.44-8.45L142.44-8.45Q142.25-8.25 142.25-7.91L142.25-7.91Q142.25-7.25 144.23-7.13L144.23-7.13 145.62-3.61 145.62-1.54Q142.81 0.44 138.42 0.44L138.42 0.44Q135.27 0.44 133.39-0.85 131.51-2.15 131.51-4.61L131.51-4.61 131.51-27.81Q131.51-28.88 133.48-29.9 135.46-30.91 138.66-31.53 141.86-32.15 145.06-32.15L145.06-32.15Q152.38-32.15 156.51-29.15L156.51-29.15Q160.85-26 160.85-20.29L160.85-20.29Q160.85-17.02 159.01-14.69 157.17-12.35 154.36-11.45L154.36-11.45Q154.36-10.67 155.3-10.67 156.24-10.67 157.75-11.79Z" fill="#ff4057" data-fill-palette-color="primary"></path></g></svg></g></svg></g></svg></g></svg></g></svg></g><defs></defs></svg><rect width="395.5199999999999" height="78.77356407578695" fill="none" stroke="none" visibility="hidden"></rect></g></svg></g></svg>