<svg xmlns="http://www.w3.org/2000/svg" version="1.1" xmlns:xlink="http://www.w3.org/1999/xlink" xmlns:svgjs="http://svgjs.dev/svgjs" width="100" height="20" viewBox="0 0 1000 200"><g transform="matrix(1,0,0,1,-0.6060606060606233,0.5195418987194813)"><svg viewBox="0 0 396 81" data-background-color="#282634" preserveAspectRatio="xMidYMid meet" height="204" width="1000" xmlns="http://www.w3.org/2000/svg" xmlns:xlink="http://www.w3.org/1999/xlink"><g id="tight-bounds" transform="matrix(1,0,0,1,0.2400000000000091,-0.20628869507979175)"><svg viewBox="0 0 395.52 81.41257415128052" height="81.41257415128052" width="395.52"><g><svg viewBox="0 0 395.52 81.41257415128052" height="81.41257415128052" width="395.52"><g><svg viewBox="0 0 395.52 81.41257415128052" height="81.41257415128052" width="395.52"><g><svg viewBox="0 0 395.52 81.41257415128052" height="81.41257415128052" width="395.52" id="textblock"><g><svg viewBox="0 0 395.52 81.41257415128052" height="81.41257415128052" width="395.52"><g transform="matrix(1,0,0,1,0,0)"><svg width="395.52" viewBox="2.2699999809265137 -40.43000030517578 204.94000244140625 42.189998626708984" height="81.41257415128052" data-palette-color="#ff4057"><g class="undefined-text-0" data-fill-palette-color="primary" id="text-0"><path d="M31.37 0L31.37-14.75 33.13-18.07 33.13 0 31.37 0ZM34.89 0L34.89-21.48 36.65-24.8 36.65 0 34.89 0ZM38.4 0L38.4-28.13 40.16-31.47 40.16 0 38.4 0ZM39.7-40.43L26.61-15.58 25.61-17.41 37.72-40.43 39.7-40.43ZM35.72-40.43L24.58-19.41 23.56-21.26 33.72-40.43 35.72-40.43ZM12.82 0L12.82-17.87 14.58-14.55 14.58 0 12.82 0ZM9.3 0L9.3-24.56 11.06-21.24 11.06 0 9.3 0ZM5.79 0L5.79-31.25 7.54-27.91 7.54 0 5.79 0ZM4.25-40.43L20-10.55 18.02-10.55 4.03-37.08 4.03 0 2.27 0 2.27-40.43 4.25-40.43ZM8.25-40.43L23.97-10.55 21.97-10.55 6.25-40.43 8.25-40.43ZM41.92 0L41.92-37.08 27.93-10.55 25.93-10.55 10.23-40.43 12.21-40.43 26.95-12.4 41.67-40.43 43.68-40.43 43.68 0 41.92 0ZM58.86 0L58.86-40.43 60.62-40.43 60.62 0 58.86 0ZM55.34 0L55.34-40.43 57.1-40.43 57.1 0 55.34 0ZM51.83 0L51.83-40.43 53.59-40.43 53.59 0 51.83 0ZM48.31 0L48.31-40.43 50.07-40.43 50.07 0 48.31 0ZM84.52-22.85L65.18-22.85 65.18-24.61 84.52-24.61 84.52-22.85ZM84.52-19.34L65.18-19.34 65.18-21.09 84.52-21.09 84.52-19.34ZM84.52-15.82L65.18-15.82 65.18-17.58 84.52-17.58 84.52-15.82ZM102.21-18.36L102.21-20.12 112.81-20.12Q115.23-20.12 116.9-21.68 118.57-23.24 118.57-26.12L118.57-26.12Q118.57-28.25 116.81-29.94 115.06-31.64 112.81-31.64L112.81-31.64 97.72-31.64 97.72 0 95.96 0 95.96-33.4 112.81-33.4Q115.79-33.4 118.06-31.19 120.33-28.98 120.33-26.12L120.33-26.12Q120.33-22.61 118.13-20.48 115.93-18.36 112.81-18.36L112.81-18.36 102.21-18.36ZM102.21-14.84L102.21-16.6 112.81-16.6Q116.62-16.6 119.35-19.27 122.09-21.95 122.09-26.12L122.09-26.12Q122.09-29.71 119.29-32.43 116.5-35.16 112.81-35.16L112.81-35.16 94.21-35.16 94.21 0 92.45 0 92.45-36.91 112.81-36.91Q115.72-36.91 118.27-35.42 120.82-33.94 122.33-31.43 123.85-28.93 123.85-26.12L123.85-26.12Q123.85-21.31 120.59-18.08 117.33-14.84 112.81-14.84L112.81-14.84 102.21-14.84ZM102.21-11.33L102.21-13.09 112.81-13.09Q116.23-13.09 119.16-14.77 122.09-16.46 123.85-19.47 125.6-22.49 125.6-26.12L125.6-26.12Q125.6-29.42 123.86-32.31 122.11-35.21 119.16-36.94 116.2-38.67 112.81-38.67L112.81-38.67 90.69-38.67 90.69 0 88.93 0 88.93-40.43 112.81-40.43Q116.64-40.43 120.01-38.46 123.38-36.5 125.37-33.19 127.36-29.88 127.36-26.12L127.36-26.12Q127.36-21.78 125.49-18.48 123.63-15.19 120.43-13.33L120.43-13.33 124.97 0 123.11 0 118.77-12.5Q117.79-12.11 117.28-11.96L117.28-11.96 121.35 0 119.5 0 115.52-11.55Q115.3-11.5 113.96-11.38L113.96-11.38 117.74 0 115.89 0 112.15-11.33 110.56-11.33 114.13 0 112.27 0 108.68-11.33 102.21-11.33ZM101.24-28.13L101.24 0 99.48 0 99.48-29.88 112.81-29.88Q114.45-29.88 115.63-28.77 116.81-27.66 116.81-26.12L116.81-26.12Q116.81-21.88 112.81-21.88L112.81-21.88 102.21-21.88 102.21-23.63 112.81-23.63Q113.86-23.63 114.46-24.18 115.06-24.73 115.06-26.12L115.06-26.12Q115.06-26.98 114.41-27.55 113.76-28.13 112.81-28.13L112.81-28.13 101.24-28.13ZM139.91-40.43L139.91 0 138.15 0 138.15-40.43 139.91-40.43ZM136.39-40.43L136.39 0 134.63 0 134.63-40.43 136.39-40.43ZM132.88-40.43L132.88 0 131.12 0 131.12-40.43 132.88-40.43ZM143.42-15.82L143.42-8.79 162.12-8.79 162.12-7.03 143.42-7.03 143.42-5.27 162.12-5.27 162.12-3.52 143.42-3.52 143.42-1.76 162.12-1.76 162.12 0 141.66 0 141.66-40.43 162.12-40.43 162.12-38.67 143.42-38.67 143.42-36.91 162.12-36.91 162.12-35.16 143.42-35.16 143.42-33.4 162.12-33.4 162.12-31.64 143.42-31.64 143.42-24.61 153.02-24.61 153.02-22.85 143.42-22.85 143.42-21.09 153.02-21.09 153.02-19.34 143.42-19.34 143.42-17.58 153.02-17.58 153.02-15.82 143.42-15.82ZM194.91-17.77L194.91-17.77 194.91-40.43 196.67-40.43 196.67-17.77Q196.67-14.06 193.74-11.43 190.81-8.79 186.71-8.79 182.6-8.79 179.68-11.43 176.75-14.06 176.75-17.77L176.75-17.77 176.75-40.43 178.5-40.43 178.5-17.77Q178.5-14.79 180.91-12.67 183.31-10.55 186.71-10.55 190.1-10.55 192.5-12.67 194.91-14.79 194.91-17.77ZM198.43-17.77L198.43-17.77 198.43-40.43 200.18-40.43 200.18-17.77Q200.18-15.23 199.11-12.93 198.03-10.62 196.23-8.94 194.42-7.25 191.93-6.26 189.44-5.27 186.71-5.27 183.97-5.27 181.48-6.26 178.99-7.25 177.18-8.94 175.38-10.62 174.3-12.93 173.23-15.23 173.23-17.77L173.23-17.77 173.23-40.43 174.99-40.43 174.99-17.77Q174.99-14.87 176.56-12.39 178.14-9.91 180.83-8.47 183.53-7.03 186.71-7.03 189.88-7.03 192.58-8.47 195.28-9.91 196.85-12.39 198.43-14.87 198.43-17.77ZM201.94-17.77L201.94-17.77 201.94-40.43 203.7-40.43 203.7-17.77Q203.7-14.53 202.34-11.56 200.99-8.59 198.72-6.45 196.45-4.3 193.3-3.03 190.15-1.76 186.71-1.76 183.26-1.76 180.11-3.03 176.97-4.3 174.69-6.45 172.42-8.59 171.07-11.56 169.71-14.53 169.71-17.77L169.71-17.77 169.71-40.43 171.47-40.43 171.47-17.77Q171.47-13.92 173.52-10.63 175.57-7.35 179.08-5.43 182.58-3.52 186.71-3.52 190.83-3.52 194.34-5.43 197.84-7.35 199.89-10.63 201.94-13.92 201.94-17.77ZM205.46-17.77L205.46-17.77 205.46-40.43 207.21-40.43 207.21-17.77Q207.21-12.5 204.46-8 201.7-3.49 196.97-0.87 192.25 1.76 186.71 1.76 181.16 1.76 176.44-0.87 171.72-3.49 168.96-8 166.2-12.5 166.2-17.77L166.2-17.77 166.2-40.43 167.96-40.43 167.96-17.77Q167.96-14.18 169.45-10.89 170.93-7.59 173.45-5.21 175.96-2.83 179.44-1.42 182.92 0 186.71 0 190.49 0 193.97-1.42 197.45-2.83 199.96-5.21 202.48-7.59 203.97-10.89 205.46-14.18 205.46-17.77Z" fill="#ff4057" data-fill-palette-color="primary"></path></g></svg></g></svg></g></svg></g></svg></g></svg></g><defs></defs></svg><rect width="395.52" height="81.41257415128052" fill="none" stroke="none" visibility="hidden"></rect></g></svg></g></svg>